<?xml version="1.0" encoding="UTF-8" standalone="no"?>
<!-- Created with Inkscape (http://www.inkscape.org/) -->

<svg
   xmlns:dc="http://purl.org/dc/elements/1.1/"
   xmlns:cc="http://creativecommons.org/ns#"
   xmlns:rdf="http://www.w3.org/1999/02/22-rdf-syntax-ns#"
   xmlns:svg="http://www.w3.org/2000/svg"
   xmlns="http://www.w3.org/2000/svg"
   xmlns:sodipodi="http://sodipodi.sourceforge.net/DTD/sodipodi-0.dtd"
   xmlns:inkscape="http://www.inkscape.org/namespaces/inkscape"
   width="396.73309"
   height="78.375999"
   viewBox="0 0 104.96896 20.736984"
   version="1.1"
   id="svg7394"
   inkscape:version="0.92.1 r"
   sodipodi:docname="logo.svg">
  <defs
     id="defs7388" />
  <sodipodi:namedview
     id="base"
     pagecolor="#ffffff"
     bordercolor="#666666"
     borderopacity="1.0"
     inkscape:pageopacity="0.0"
     inkscape:pageshadow="2"
     inkscape:zoom="0.35"
     inkscape:cx="132.65226"
     inkscape:cy="-243.66911"
     inkscape:document-units="mm"
     inkscape:current-layer="layer1"
     showgrid="false"
     units="px"
     fit-margin-top="0"
     fit-margin-left="0"
     fit-margin-right="0"
     fit-margin-bottom="0"
     inkscape:window-width="1487"
     inkscape:window-height="866"
     inkscape:window-x="3"
     inkscape:window-y="3"
     inkscape:window-maximized="1" />
  <metadata
     id="metadata7391">
    <rdf:RDF>
      <cc:Work
         rdf:about="">
        <dc:format>image/svg+xml</dc:format>
        <dc:type
           rdf:resource="http://purl.org/dc/dcmitype/StillImage" />
        <dc:title></dc:title>
      </cc:Work>
    </rdf:RDF>
  </metadata>
  <g
     inkscape:label="Layer 1"
     inkscape:groupmode="layer"
     id="layer1"
     transform="translate(111.44877,-63.625556)">
    <g
       id="g280"
       transform="matrix(0.26458333,0,0,0.26458333,-453.98705,46.991466)">
      <path
         id="path276"
         d="m 1668.281,117.944 6.452,-26.364 c 2.946,-10.999 -4.104,-17.734 -14.593,-17.734 -5.773,0 -11.434,2.765 -16.541,6.717 l -48.31,37.38 h -12.267 l -10e-4,0.002 h -3.611 l 6.446,-26.364 c 2.945,-10.999 -4.101,-17.734 -14.59,-17.734 -5.773,0 -11.434,2.765 -16.541,6.717 l -48.31,37.38 h -6.683 v 0.002 h -7.034 c 2.33,-8.682 4.443,-17.517 6.778,-26.429 2.846,-10.629 -2.748,-17.734 -13.62,-17.734 -5.78,0 -11.447,2.754 -16.554,6.728 l -40.787,31.746 5.147,-19.201 c 2.98,-11.125 -1.741,-18.093 -13.097,-18.093 h -19.281 l -5.994,22.368 h 14.623 l -5.575,20.614 h -75.691 l 5.504,-20.55 h 41.469 l 5.996,-22.368 h -38.65 c -16.416,0 -28.025,8.453 -32.492,25.125 l -5.162,19.257 c -3.272,12.219 5.7,20.84 17.302,20.84 h 94.055 0.01 c 6.655,0 12.042,-2.397 17.153,-6.358 l 40.089,-31.064 -5.027,19.33 c -2.982,11.125 1.738,18.093 13.098,18.093 h 11.765 0.996 6.441 c 8.082,0 14.843,-3.622 19.02,-7.231 l 41.359,-35.75 -6.909,28.837 c -2.056,8.58 4.087,14.144 14.016,14.144 h 8.366 4.858 8.163 c 7.053,0 12.68,-2.324 18.942,-7.152 l 9.255,-6.949 h 25.433 c -0.931,8.776 3.927,14.102 13.857,14.102 h 27.838 l 5.974,-22.301 h -23.084 z m -20.889,-9.278 h -11.729 l 14.785,-11.401 z"
         inkscape:connector-curvature="0"
         style="fill:#333340" />
      <circle
         id="circle278"
         r="12.18"
         cy="75.049004"
         cx="1513.118"
         style="fill:#333340" />
    </g>
    <g
       id="g342"
       transform="matrix(0.26458333,0,0,0.26458333,-453.98705,46.991466)">
      <path
         id="path282"
         d="m 1463.923,103.823 -40.089,31.064 c -5.111,3.961 -10.499,6.358 -17.153,6.358 h -0.01 -94.055 c -11.603,0 -20.575,-8.621 -17.302,-20.84 l 5.162,-19.257 c 4.467,-16.671 16.076,-25.125 32.492,-25.125 h 38.65 l -5.996,22.368 h -41.469 l -5.504,20.55 h 75.691 l 5.575,-20.614 h -14.623 l 5.994,-22.368 h 19.281 c 11.356,0 16.078,6.968 13.097,18.093 l -5.147,19.201 40.787,-31.746 c 5.106,-3.974 10.774,-6.728 16.554,-6.728 10.872,0 16.466,7.104 13.619,17.734 -2.334,8.912 -4.447,17.747 -6.777,26.429 h 8.031 l -5.977,22.301 h -12.761 c -11.36,0 -16.081,-6.967 -13.098,-18.093 z"
         inkscape:connector-curvature="0"
         style="clip-rule:evenodd;fill:#ffffff;fill-rule:evenodd" />
      <path
         id="path284"
         d="m 1637.392,109.666 3.056,-11.401 -14.785,11.401 z m -29.126,17.478 -9.255,6.949 c -6.263,4.829 -11.89,7.152 -18.942,7.152 h -13.021 l 5.977,-22.303 h 12.267 l 48.31,-37.38 c 5.107,-3.952 10.768,-6.717 16.541,-6.717 10.489,0 17.539,6.736 14.593,17.734 l -6.452,26.364 h 23.086 l -5.974,22.301 h -27.838 c -9.931,0 -14.788,-5.326 -13.857,-14.102 h -25.435 z"
         inkscape:connector-curvature="0"
         style="clip-rule:evenodd;fill:#ffffff;fill-rule:evenodd" />
      <path
         id="path286"
         d="m 1510.215,134.014 c -4.177,3.61 -10.938,7.231 -19.02,7.231 h -7.437 l 5.976,-22.303 h 6.683 l 48.31,-37.38 c 5.107,-3.952 10.768,-6.717 16.541,-6.717 10.489,0 17.535,6.736 14.59,17.734 l -6.446,26.364 h 8.469 l -5.975,22.301 h -13.225 c -9.929,0 -16.071,-5.564 -14.016,-14.144 l 6.909,-28.837 z"
         inkscape:connector-curvature="0"
         style="clip-rule:evenodd;fill:#ffffff;fill-rule:evenodd" />
      <path
         id="path288"
         d="m 1381.729,121.533 c 4.458,0 8.077,3.617 8.077,8.078 0,4.463 -3.618,8.08 -8.077,8.08 -4.462,0 -8.078,-3.617 -8.078,-8.08 0,-4.461 3.616,-8.078 8.078,-8.078"
         inkscape:connector-curvature="0"
         style="clip-rule:evenodd;fill:#e5007e;fill-rule:evenodd" />
      <path
         id="path290"
         d="m 1489.653,121.533 c -4.46,0 -8.077,3.617 -8.077,8.078 0,4.463 3.616,8.08 8.077,8.08 4.462,0 8.078,-3.617 8.078,-8.08 0,-4.461 -3.615,-8.078 -8.078,-8.078"
         inkscape:connector-curvature="0"
         style="clip-rule:evenodd;fill:#e5007e;fill-rule:evenodd" />
      <path
         id="path292"
         d="m 1576.345,121.533 c -4.463,0 -8.079,3.617 -8.079,8.078 0,4.463 3.616,8.08 8.079,8.08 4.463,0 8.076,-3.617 8.076,-8.08 0,-4.461 -3.613,-8.078 -8.076,-8.078"
         inkscape:connector-curvature="0"
         style="clip-rule:evenodd;fill:#e5007e;fill-rule:evenodd" />
      <path
         id="path294"
         d="m 1665.237,121.533 c -4.465,0 -8.079,3.617 -8.079,8.078 0,4.463 3.614,8.08 8.079,8.08 4.458,0 8.078,-3.617 8.078,-8.08 0,-4.461 -3.62,-8.078 -8.078,-8.078"
         inkscape:connector-curvature="0"
         style="clip-rule:evenodd;fill:#e5007e;fill-rule:evenodd" />
      <path
         id="path296"
         d="m 1503.118,63.869 c 6.728,0 12.179,5.453 12.179,12.18 0,6.726 -5.451,12.18 -12.179,12.18 -6.727,0 -12.18,-5.454 -12.18,-12.18 0,-6.728 5.453,-12.18 12.18,-12.18"
         inkscape:connector-curvature="0"
         style="clip-rule:evenodd;fill:#ffffff;fill-rule:evenodd" />
      <g
         id="g340">
        <path
           id="path298"
           d="m 1385.242,131.708 h 2.931 c 0.025,-1.055 -0.157,-2.003 -0.522,-2.844 z"
           inkscape:connector-curvature="0"
           style="fill:#ffffff" />
        <path
           id="path300"
           d="m 1386.45,127.05 -4.721,6.515 -4.725,-6.515 c -0.276,0.292 -0.524,0.606 -0.738,0.942 l 5.463,6.893 5.461,-6.893 c -0.215,-0.335 -0.461,-0.649 -0.74,-0.942 z"
           inkscape:connector-curvature="0"
           style="fill:#ffffff" />
        <path
           id="path302"
           d="m 1375.284,131.708 h 2.929 l -2.409,-2.844 c -0.364,0.841 -0.549,1.789 -0.52,2.844 z"
           inkscape:connector-curvature="0"
           style="fill:#ffffff" />
        <path
           id="path304"
           d="m 1385.737,126.392 c -0.31,-0.248 -0.648,-0.479 -1.008,-0.69 l -3,5.756 -3.001,-5.756 c -0.361,0.21 -0.698,0.442 -1.009,0.69 l 4.011,6.46 z"
           inkscape:connector-curvature="0"
           style="fill:#ffffff" />
        <polygon
           id="polygon306"
           points="1381.729,124.338 1379.73,124.338 1381.729,130.191 1383.727,124.338 "
           style="fill:#ffffff" />
        <path
           id="path308"
           d="m 1483.209,131.708 h 2.93 l -2.409,-2.844 c -0.362,0.841 -0.548,1.789 -0.521,2.844 z"
           inkscape:connector-curvature="0"
           style="fill:#ffffff" />
        <polygon
           id="polygon310"
           points="1489.653,124.338 1487.656,124.338 1489.653,130.191 1491.655,124.338 "
           style="fill:#ffffff" />
        <path
           id="path312"
           d="m 1494.377,127.05 -4.724,6.515 -4.723,-6.515 c -0.277,0.292 -0.523,0.606 -0.738,0.942 l 5.461,6.893 5.463,-6.893 c -0.215,-0.335 -0.461,-0.649 -0.739,-0.942 z"
           inkscape:connector-curvature="0"
           style="fill:#ffffff" />
        <path
           id="path314"
           d="m 1493.664,126.396 c -0.313,-0.251 -0.649,-0.483 -1.008,-0.694 l -3.002,5.756 -2.999,-5.756 c -0.361,0.21 -0.699,0.442 -1.01,0.694 l 4.009,6.456 z"
           inkscape:connector-curvature="0"
           style="fill:#ffffff" />
        <path
           id="path316"
           d="m 1493.171,131.708 h 2.926 c 0.029,-1.055 -0.156,-2.003 -0.519,-2.844 z"
           inkscape:connector-curvature="0"
           style="fill:#ffffff" />
        <path
           id="path318"
           d="m 1580.353,126.396 c -0.309,-0.251 -0.647,-0.483 -1.011,-0.694 l -2.997,5.756 -2.999,-5.756 c -0.363,0.21 -0.698,0.442 -1.012,0.694 l 4.011,6.456 z"
           inkscape:connector-curvature="0"
           style="fill:#ffffff" />
        <polygon
           id="polygon320"
           points="1576.345,124.338 1574.347,124.338 1576.345,130.191 1578.343,124.338 "
           style="fill:#ffffff" />
        <path
           id="path322"
           d="m 1579.858,131.708 h 2.932 c 0.024,-1.055 -0.16,-2.003 -0.521,-2.844 z"
           inkscape:connector-curvature="0"
           style="fill:#ffffff" />
        <path
           id="path324"
           d="m 1569.898,131.708 h 2.93 l -2.408,-2.844 c -0.363,0.841 -0.547,1.789 -0.522,2.844 z"
           inkscape:connector-curvature="0"
           style="fill:#ffffff" />
        <path
           id="path326"
           d="m 1581.067,127.05 -4.723,6.515 -4.722,-6.515 c -0.278,0.292 -0.527,0.606 -0.74,0.942 l 5.462,6.893 5.46,-6.893 c -0.211,-0.335 -0.46,-0.649 -0.737,-0.942 z"
           inkscape:connector-curvature="0"
           style="fill:#ffffff" />
        <path
           id="path328"
           d="m 1658.791,131.708 h 2.93 l -2.41,-2.844 c -0.366,0.841 -0.545,1.789 -0.52,2.844 z"
           inkscape:connector-curvature="0"
           style="fill:#ffffff" />
        <path
           id="path330"
           d="m 1671.161,128.863 -2.41,2.844 h 2.93 c 0.023,-1.054 -0.159,-2.002 -0.52,-2.844 z"
           inkscape:connector-curvature="0"
           style="fill:#ffffff" />
        <path
           id="path332"
           d="m 1669.956,127.05 -4.719,6.515 -4.723,-6.515 c -0.279,0.292 -0.524,0.606 -0.741,0.942 l 5.464,6.893 5.459,-6.893 c -0.215,-0.335 -0.46,-0.649 -0.74,-0.942 z"
           inkscape:connector-curvature="0"
           style="fill:#ffffff" />
        <polygon
           id="polygon334"
           points="1665.237,124.338 1663.237,124.338 1665.237,130.191 1667.234,124.338 "
           style="fill:#ffffff" />
        <path
           id="path336"
           d="m 1669.247,126.396 c -0.315,-0.251 -0.653,-0.483 -1.013,-0.694 l -2.997,5.756 -3.002,-5.756 c -0.359,0.21 -0.699,0.442 -1.008,0.694 l 4.01,6.456 z"
           inkscape:connector-curvature="0"
           style="fill:#ffffff" />
        <path
           id="path338"
           d="m 1504.031,78.371 c 1.452,-0.944 2.588,-1.858 3.409,-2.741 0.82,-0.882 1.201,-2.013 1.14,-3.395 -0.014,-1.137 -0.279,-2.096 -0.794,-2.878 -0.516,-0.784 -1.209,-1.367 -2.084,-1.75 -0.875,-0.385 -1.836,-0.569 -2.879,-0.554 -1.747,0.016 -3.057,0.572 -3.923,1.67 -0.87,1.098 -1.303,2.476 -1.303,4.134 h 3.154 c 0,-0.199 0.014,-0.458 0.034,-0.772 0.024,-0.314 0.102,-0.652 0.23,-1.013 0.131,-0.361 0.371,-0.665 0.716,-0.909 0.345,-0.247 0.793,-0.369 1.347,-0.369 0.845,0 1.438,0.253 1.785,0.76 0.345,0.506 0.517,1.022 0.517,1.543 0,0.629 -0.153,1.186 -0.462,1.669 -0.304,0.484 -0.713,0.929 -1.219,1.336 -0.507,0.406 -1.329,1.024 -2.465,1.852 -1.211,0.892 -2.148,1.801 -2.809,2.729 -0.661,0.93 -0.995,2.178 -1.012,3.743 h 11.215 v -2.832 h -7.117 c 0.233,-0.538 1.072,-1.279 2.52,-2.223 z"
           inkscape:connector-curvature="0"
           style="fill:#e5007e" />
      </g>
    </g>
  </g>
</svg>
